HIERARCHY
ROOT Hips
{
  OFFSET -4.35178 90.3298 111.633
  CHANNELS 6 Xposition Yposition Zposition Zrotation Xrotation Yrotation
  JOINT LeftUpLeg
  {
    OFFSET 0.103456 1.85784 10.5485
    CHANNELS 6 Xposition Yposition Zposition Zrotation Xrotation Yrotation
    JOINT LeftLeg
    {
      OFFSET 43.5 -4.2e-05 0
      CHANNELS 6 Xposition Yposition Zposition Zrotation Xrotation Yrotation
      JOINT LeftFoot
      {
        OFFSET 42.3722 1.9e-05 0
        CHANNELS 6 Xposition Yposition Zposition Zrotation Xrotation Yrotation
        JOINT LeftToe
        {
          OFFSET 17.3 0 0
          CHANNELS 6 Xposition Yposition Zposition Zrotation Xrotation Yrotation
          End Site
          {
            OFFSET 0 0 0
          }
        }
      }
    }
  }
  JOINT RightUpLeg
  {
    OFFSET 0.103456 1.85782 -10.5485
    CHANNELS 6 Xposition Yposition Zposition Zrotation Xrotation Yrotation
    JOINT RightLeg
    {
      OFFSET 43.5 -2.7e-05 0
      CHANNELS 6 Xposition Yposition Zposition Zrotation Xrotation Yrotation
      JOINT RightFoot
      {
        OFFSET 42.3723 0 0
        CHANNELS 6 Xposition Yposition Zposition Zrotation Xrotation Yrotation
        JOINT RightToe
        {
          OFFSET 17.3 0 1.7e-05
          CHANNELS 6 Xposition Yposition Zposition Zrotation Xrotation Yrotation
          End Site
          {
            OFFSET 0 0 0
          }
        }
      }
    }
  }
  JOINT Spine
  {
    OFFSET 6.90197 -2.60373 0
    CHANNELS 6 Xposition Yposition Zposition Zrotation Xrotation Yrotation
    JOINT Spine1
    {
      OFFSET 12.5881 0 0
      CHANNELS 6 Xposition Yposition Zposition Zrotation Xrotation Yrotation
      JOINT Spine2
      {
        OFFSET 12.3432 -1.8e-05 0
        CHANNELS 6 Xposition Yposition Zposition Zrotation Xrotation Yrotation
        JOINT Neck
        {
          OFFSET 25.8329 2.3e-05 0
          CHANNELS 6 Xposition Yposition Zposition Zrotation Xrotation Yrotation
          JOINT Head
          {
            OFFSET 11.7666 0 0
            CHANNELS 6 Xposition Yposition Zposition Zrotation Xrotation Yrotation
            End Site
            {
              OFFSET 0 0 0
            }
          }
        }
        JOINT LeftShoulder
        {
          OFFSET 19.7459 -1.48035 6.0001
          CHANNELS 6 Xposition Yposition Zposition Zrotation Xrotation Yrotation
          JOINT LeftArm
          {
            OFFSET 11.2841 1.8e-05 -2e-05
            CHANNELS 6 Xposition Yposition Zposition Zrotation Xrotation Yrotation
            JOINT LeftForeArm
            {
              OFFSET 33 -1.3e-05 1.9e-05
              CHANNELS 6 Xposition Yposition Zposition Zrotation Xrotation Yrotation
              JOINT LeftHand
              {
                OFFSET 25.2 3.2e-05 1.1e-05
                CHANNELS 6 Xposition Yposition Zposition Zrotation Xrotation Yrotation
                End Site
                {
                  OFFSET 0 0 0
                }
              }
            }
          }
        }
        JOINT RightShoulder
        {
          OFFSET 19.7461 -1.48036 -6.00008
          CHANNELS 6 Xposition Yposition Zposition Zrotation Xrotation Yrotation
          JOINT RightArm
          {
            OFFSET 11.2841 0 0
            CHANNELS 6 Xposition Yposition Zposition Zrotation Xrotation Yrotation
            JOINT RightForeArm
            {
              OFFSET 33.0001 1.6e-05 0
              CHANNELS 6 Xposition Yposition Zposition Zrotation Xrotation Yrotation
              JOINT RightHand
              {
                OFFSET 25.1998 0.000123 0.000432
                CHANNELS 6 Xposition Yposition Zposition Zrotation Xrotation Yrotation
                End Site
                {
                  OFFSET 0 0 0
                }
              }
            }
          }
        }
      }
    }
  }
}
MOTION
Frames:	4
Frame Time:	0.0333333
20.5438 92.0899 1.576 48.0256 84.4846 43.8834 0.103456 1.85784 10.5485 8.89037 3.5655 179.141 43.5 -4.2e-05 1e-05 -8.539 -8.57442 -2.13347 42.3722 1.9e-05 0 74.3797 -3.16483 3.29205 17.3 0 3e-06 21.4546 -1e-06 0.003093 0.103456 1.85782 -10.5485 1.01689 -8.36476 171.494 43.5 -2.7e-05 4e-06 -17.88 9.60706 1.9769 42.3723 1.77636e-15 1e-05 80.0859 6.9873 -4.2926 17.3 -6e-06 1.7e-05 21.4546 -1.9e-05 -0.003116 6.90197 -2.60373 -3e-06 7.64214 -0.222317 0.103459 12.5881 1e-05 8e-06 5.27456 -0.36166 0.249552 12.3432 -1.8e-05 -5e-06 4.96031 -0.268258 0.279786 25.8329 2.3e-05 7e-06 4.35261 -0.610341 -7.46247 11.7666 -8e-06 -6e-06 -17.5537 -4.14172 11.2421 19.7459 -1.48035 6.0001 176.578 -3.99887 -90.7577 11.2841 1.8e-05 -2e-05 13.1366 -17.1698 22.1276 33 -1.3e-05 1.9e-05 -28.6555 0.20839 -16.4886 25.2 3.2e-05 1.1e-05 8.47081 29.5152 -3.18521 19.7461 -1.48036 -6.00008 178.764 9.9537 86.1277 11.2841 -3.55271e-15 -1e-06 -3.23029 5.38959 -16.7124 33.0001 1.6e-05 -1e-06 -41.7232 -6.20052 19.6743 25.1998 0.000123 0.000432 1.19572 -15.2798 4.61914 
20.5918 92.0688 1.70885 50.1526 84.2344 41.746 0.103456 1.85784 10.5485 8.65921 3.68541 179.108 43.5 -4.2e-05 1e-05 -9.28336 -8.61842 -2.17412 42.3722 1.9e-05 0 74.8151 -3.27484 3.33362 17.3 0 3e-06 21.4546 -1e-06 0.003093 0.103456 1.85782 -10.5485 0.706686 -8.15521 171.441 43.5 -2.7e-05 4e-06 -18.5551 9.62063 1.93229 42.3723 -1.77636e-15 1e-05 80.3953 6.88941 -4.30416 17.3 -6e-06 1.7e-05 21.4546 -1.9e-05 -0.003116 6.90197 -2.60373 -3e-06 7.71445 -0.193765 0.103458 12.5881 1e-05 8e-06 5.41839 -0.302776 0.249551 12.3432 -1.8e-05 -5e-06 5.10326 -0.20743 0.279785 25.8329 2.3e-05 7e-06 4.13296 -0.379682 -7.44329 11.7666 -8e-06 -6e-06 -16.9828 -3.92996 11.458 19.7459 -1.48035 6.0001 176.694 -4.20398 -90.2002 11.2841 1.8e-05 -2e-05 13.5111 -17.2161 23.0168 33 -1.3e-05 1.9e-05 -31.6054 0.765171 -15.9457 25.2 3.2e-05 1.1e-05 7.00625 29.76 -3.10469 19.7461 -1.48036 -6.00008 179.214 10.1176 85.3176 11.2841 0 -1e-06 -3.31264 4.83269 -17.8308 33.0001 1.6e-05 -1e-06 -45.4055 -6.55132 19.9614 25.1998 0.000123 0.000432 -0.0975325 -15.2617 4.92259 
20.6779 92.0184 1.8739 52.172 84.0084 39.7173 0.103456 1.85784 10.5485 8.62001 3.80046 179.04 43.5 -4.2e-05 1e-05 -9.64834 -8.69403 -2.20481 42.3722 1.9e-05 -7.10543e-15 75.1526 -3.32843 3.36887 17.3 8.88178e-16 3e-06 21.4546 -1e-06 0.003093 0.103456 1.85782 -10.5485 0.365665 -7.91712 171.384 43.5 -2.7e-05 4e-06 -19.3065 9.67132 1.88729 42.3723 0 1e-05 80.7051 6.76375 -4.3752 17.3 -6e-06 1.7e-05 21.4546 -1.9e-05 -0.003116 6.90197 -2.60373 -3e-06 7.78618 -0.183026 0.103458 12.5881 1e-05 8e-06 5.56157 -0.278944 0.256859 12.3432 -1.8e-05 -5e-06 5.24602 -0.181028 0.2858 25.8329 2.3e-05 7e-06 3.88459 -0.169097 -7.43067 11.7666 -8e-06 -6e-06 -16.4857 -3.70803 11.6578 19.7459 -1.48035 6.0001 176.918 -4.37936 -89.5828 11.2841 1.8e-05 -2e-05 13.8888 -17.2128 24.071 33 -1.3e-05 1.9e-05 -35.0342 1.07163 -15.1934 25.2 3.2e-05 1.1e-05 5.81369 30.0275 -3.28794 19.7461 -1.48036 -6.00008 179.755 10.2486 84.4234 11.2841 0 -1e-06 -3.56807 4.00664 -18.9967 33.0001 1.6e-05 -1e-06 -49.2872 -6.9679 20.1303 25.1998 0.000123 0.000432 -1.4946 -15.2692 5.16601 
20.7839 91.9697 2.05035 54.5199 83.7904 37.4103 0.103456 1.85784 10.5485 8.66825 3.92445 178.902 43.5 -4.2e-05 1e-05 -9.79859 -8.78183 -2.22577 42.3722 1.9e-05 -7.10543e-15 75.427 -3.35665 3.40154 17.3 8.88178e-16 3e-06 21.4546 -1e-06 0.003093 0.103456 1.85782 -10.5485 -0.16471 -7.5381 171.249 43.5 -2.7e-05 4e-06 -20.3833 9.74189 1.85822 42.3723 1.77636e-15 1e-05 81.1078 6.74486 -4.43586 17.3 -6e-06 1.7e-05 21.4546 -1.9e-05 -0.003116 6.90197 -2.60373 -3e-06 7.85949 -0.193883 0.103458 12.5881 1e-05 8e-06 5.70849 -0.298606 0.260544 12.3432 -1.8e-05 -5e-06 5.39321 -0.198205 0.2909 25.8329 2.3e-05 7e-06 3.67727 -0.00776102 -7.43199 11.7666 -8e-06 -6e-06 -16.2684 -3.50121 11.8054 19.7459 -1.48035 6.0001 177.19 -4.51786 -89.0451 11.2841 1.8e-05 -2e-05 14.7475 -17.4643 25.5712 33 -1.3e-05 1.9e-05 -39.2116 0.77065 -14.0944 25.2 3.2e-05 1.1e-05 4.49208 30.0714 -3.41736 19.7461 -1.48036 -6.00008 -179.618 10.3225 83.6112 11.2841 -7.10543e-15 -1e-06 -3.9559 3.33775 -20.4985 33.0001 1.6e-05 -1e-06 -53.494 -7.24194 20.2338 25.1998 0.000123 0.000432 -2.86657 -15.2896 5.46191 
